# xmcd
#
# Track frame offsets:
#	300
#	12497
#	26782
#	38635
#	53457
#	67455
#	81407
#	94090
#	107082
#	116997
#	129002
#	144107
#	157362
#	172190
#	187280
#	198835
#	213522
#	227277
#	239755
#	252527
#
# Disc length: 3548 seconds
#
# Revision: 0
# Processed by: cddbd v1.5.2PL0 Copyright (c) Steve Scherf et al.
# Submitted via: audiograbber 1.83.01
#
DISCID=2c0dd814
DTITLE=Muddy Waters - I Can't Be Satisfied
DYEAR=1900
DGENRE=Blues
TTITLE0=I Can't Be Satisfied
TTITLE1=I Feel Like Going Home
TTITLE2=You're Gonna Miss Me
TTITLE3=Streamline Woman
TTITLE4=Screamin' And Cryin'
TTITLE5=Rollin' Stone
TTITLE6=Hello Little Girl (Appealing Blues)
TTITLE7=Louisiana Blues
TTITLE8=Evan's Shuffle
TTITLE9=Long Distance Call
TTITLE10=Honey Bee
TTITLE11=She Moves Me
TTITLE12=Still A Fool
TTITLE13=Standing Around Crying
TTITLE14=She's All Right
TTITLE15=Turn The Lamp Down Low
TTITLE16=I Want You To Love Me
TTITLE17=I'm Your Hoochie Coochie Man
TTITLE18=I Just Want To Make Love To You
TTITLE19=I'm Ready
EXTD=
EXTT0=
EXTT1=
EXTT2=
EXTT3=
EXTT4=
EXTT5=
EXTT6=
EXTT7=
EXTT8=
EXTT9=
EXTT10=
EXTT11=
EXTT12=
EXTT13=
EXTT14=
EXTT15=
EXTT16=
EXTT17=
EXTT18=
EXTT19=
PLAYORDER=
